<?xml version="1.0" encoding="utf-8"?>
<!-- Generator: Adobe Illustrator 25.0.0, SVG Export Plug-In . SVG Version: 6.00 Build 0)  -->
<svg version="1.1" id="Layer_1" xmlns="http://www.w3.org/2000/svg" xmlns:xlink="http://www.w3.org/1999/xlink" x="0px" y="0px"
	 viewBox="0 0 120 48" style="enable-background:new 0 0 120 48;" xml:space="preserve">
<style type="text/css">
	.st0{fill:#1DA1F2;}
	.st1{fill:#FFFFFF;}
	.st2{fill:#1877F2;}
	.st3{fill:#C32AA3;}
	.st4{fill:#010101;}
	.st5{fill:#FF0000;}
</style>
<g>
	<path class="st0" d="M36,25c-6.1,0-11,4.9-11,11s4.9,11,11,11s11-4.9,11-11S42.1,25,36,25z M41.6,33.8c0.2,3.7-2.6,7.8-7.5,7.8
		c-1.5,0-2.9-0.4-4-1.2c1.4,0.2,2.8-0.2,3.9-1.1c-1.2,0-2.1-0.8-2.5-1.8c0.4,0.1,0.8,0.1,1.2,0c-1.3-0.3-2.1-1.4-2.1-2.6
		c0.4,0.2,0.8,0.3,1.2,0.3c-1.2-0.8-1.5-2.3-0.8-3.5c1.3,1.6,3.2,2.6,5.4,2.8c-0.4-1.6,0.9-3.2,2.6-3.2c0.8,0,1.4,0.3,1.9,0.8
		c0.5-0.1,1.1-0.4,1.6-0.7c-0.2,0.6-0.6,1.1-1.2,1.5c0.5-0.1,1-0.2,1.5-0.4C42.5,33,42.1,33.5,41.6,33.8z"/>
	<path class="st1" d="M88.8,31.7v1.2c0,0.3-0.2,0.5-0.5,0.5h-1.2c-0.3,0-0.5-0.2-0.5-0.5v-1.2c0-0.3,0.2-0.5,0.5-0.5h1.2
		C88.6,31.2,88.8,31.4,88.8,31.7z"/>
	<path class="st2" d="M12,25C5.9,25,1,29.9,1,36s4.9,11,11,11s11-4.9,11-11S18.1,25,12,25z M14.9,36.7H13V42h-2.3v-5.3H8.8v-2.2h1.9
		v-1.7c0-1.8,1.1-2.8,2.8-2.8c0.8,0,1.5,0.1,1.7,0.1v2H14c-1,0-1.1,0.5-1.1,1v1.4h2.2L14.9,36.7z"/>
	<g>
		<path class="st3" d="M83.7,34c-0.9,0.2-1.5,0.8-1.6,1.6C81.8,37,83,38.2,84.4,38c0.8-0.2,1.4-0.8,1.6-1.6
			C86.3,34.9,85.1,33.7,83.7,34z"/>
		<path class="st3" d="M84,25c-6.1,0-11,4.9-11,11s4.9,11,11,11s11-4.9,11-11S90.1,25,84,25z M89.9,38.7c0,1.8-1.5,3.2-3.2,3.2h-5.3
			c-1.8,0-3.2-1.5-3.2-3.2v-5.3c0-1.8,1.5-3.2,3.2-3.2h5.3c1.8,0,3.2,1.5,3.2,3.2V38.7z"/>
		<path class="st3" d="M86.7,31.2h-5.3c-1.2,0-2.2,1-2.2,2.2v5.3c0,1.2,1,2.2,2.2,2.2h5.3c1.2,0,2.2-1,2.2-2.2v-5.3
			C88.8,32.2,87.8,31.2,86.7,31.2z M83.2,39c-1.1-0.3-1.8-1.1-2.1-2.1c-0.6-2.3,1.5-4.4,3.8-3.8c1,0.3,1.8,1.2,2.1,2.1
			C87.5,37.5,85.5,39.5,83.2,39z M87.8,33.4c-0.2,0.1-0.3,0.2-0.5,0.2c-0.2,0-0.4-0.1-0.5-0.2c-0.2-0.2-0.2-0.3-0.2-0.6
			c0-0.1,0.1-0.4,0.2-0.5c0.1-0.1,0.3-0.2,0.5-0.2c0.2,0,0.3,0.1,0.5,0.2c0.2,0.2,0.2,0.3,0.2,0.5C88,33,87.9,33.2,87.8,33.4z"/>
	</g>
	<path class="st4" d="M108,25c-6.1,0-11,4.9-11,11s4.9,11,11,11s11-4.9,11-11S114.1,25,108,25z M112.8,34v1.3
		c-0.6,0-1.2-0.2-1.8-0.4c-0.4-0.2-0.7-0.3-1-0.6v3.9c0,0.9-0.4,1.8-1,2.4c-0.5,0.5-1.2,0.8-1.9,0.9c-0.2,0-0.4,0-0.6,0
		c-0.8,0-1.4-0.2-2-0.7c0-0.1-0.2-0.2-0.3-0.3c-0.7-0.7-1.1-1.6-1-2.6c0.1-0.7,0.3-1.4,0.8-2c0.7-0.8,1.6-1.1,2.6-1.1
		c0.2,0,0.4,0,0.5,0v0.4v1.3c-0.2-0.1-0.4-0.1-0.5-0.1c-0.9,0-1.6,0.7-1.6,1.6c0,0.6,0.3,1,0.8,1.3c0.2,0.2,0.5,0.2,0.8,0.2
		c0.2,0,0.5,0,0.6-0.1c0.6-0.2,1-0.8,1-1.5v-2.7v-4.8h1.8c0,0.2,0.1,0.4,0.1,0.5c0.2,0.6,0.5,1.2,1.1,1.6c0.4,0.3,1,0.6,1.6,0.6V34z
		"/>
	<g>
		<polygon class="st5" points="58.9,37.7 61.8,36 58.9,34.3 		"/>
		<path class="st5" d="M60,25c-6.1,0-11,4.9-11,11s4.9,11,11,11s11-4.9,11-11S66.1,25,60,25z M65.4,38.7c-0.2,0.5-0.5,0.8-1,1
			c-0.9,0.2-4.4,0.2-4.4,0.2s-3.5,0-4.4-0.2c-0.5-0.2-0.8-0.5-1-1c-0.2-0.9-0.2-2.7-0.2-2.7s0-1.8,0.2-2.7c0.2-0.5,0.5-0.8,1-1
			c0.9-0.2,4.4-0.2,4.4-0.2s3.5,0,4.4,0.2c0.5,0.2,0.8,0.5,1,1c0.2,0.9,0.2,2.7,0.2,2.7S65.6,37.8,65.4,38.7z"/>
	</g>
</g>
<path class="st1" d="M36,1c-6.1,0-11,4.9-11,11s4.9,11,11,11s11-4.9,11-11S42.1,1,36,1z M41.6,9.8c0.2,3.7-2.6,7.8-7.5,7.8
	c-1.5,0-2.9-0.4-4-1.2c1.4,0.2,2.8-0.2,3.9-1.1c-1.2,0-2.1-0.8-2.5-1.8c0.4,0.1,0.8,0.1,1.2,0c-1.3-0.3-2.1-1.4-2.1-2.6
	c0.4,0.2,0.8,0.3,1.2,0.3c-1.2-0.8-1.5-2.3-0.8-3.5c1.3,1.6,3.2,2.6,5.4,2.8C36,8.9,37.3,7.3,39,7.3c0.8,0,1.4,0.3,1.9,0.8
	C41.4,8,42,7.7,42.5,7.4c-0.2,0.6-0.6,1.1-1.2,1.5c0.5-0.1,1-0.2,1.5-0.4C42.5,9,42.1,9.5,41.6,9.8z"/>
<path class="st1" d="M88.8,7.7v1.2c0,0.3-0.2,0.5-0.5,0.5h-1.2c-0.3,0-0.5-0.2-0.5-0.5V7.7c0-0.3,0.2-0.5,0.5-0.5h1.2
	C88.6,7.2,88.8,7.4,88.8,7.7z"/>
<path class="st1" d="M12,1C5.9,1,1,5.9,1,12s4.9,11,11,11s11-4.9,11-11S18.1,1,12,1z M14.9,12.7H13V18h-2.3v-5.3H8.8v-2.2h1.9V8.8
	C10.7,7,11.8,6,13.5,6c0.8,0,1.5,0.1,1.7,0.1v2H14c-1,0-1.1,0.5-1.1,1v1.4h2.2L14.9,12.7z"/>
<g>
	<path class="st1" d="M83.7,10c-0.9,0.2-1.5,0.8-1.6,1.6C81.8,13,83,14.2,84.4,14c0.8-0.2,1.4-0.8,1.6-1.6
		C86.3,10.9,85.1,9.7,83.7,10z"/>
	<path class="st1" d="M84,1c-6.1,0-11,4.9-11,11s4.9,11,11,11s11-4.9,11-11S90.1,1,84,1z M89.9,14.7c0,1.8-1.5,3.2-3.2,3.2h-5.3
		c-1.8,0-3.2-1.5-3.2-3.2V9.3c0-1.8,1.5-3.2,3.2-3.2h5.3c1.8,0,3.2,1.5,3.2,3.2V14.7z"/>
	<path class="st1" d="M86.7,7.2h-5.3c-1.2,0-2.2,1-2.2,2.2v5.3c0,1.2,1,2.2,2.2,2.2h5.3c1.2,0,2.2-1,2.2-2.2V9.3
		C88.8,8.2,87.8,7.2,86.7,7.2z M83.2,15c-1.1-0.3-1.8-1.1-2.1-2.1c-0.6-2.3,1.5-4.4,3.8-3.8c1,0.3,1.8,1.2,2.1,2.1
		C87.5,13.5,85.5,15.5,83.2,15z M87.8,9.4c-0.2,0.1-0.3,0.2-0.5,0.2c-0.2,0-0.4-0.1-0.5-0.2c-0.2-0.2-0.2-0.3-0.2-0.6
		c0-0.1,0.1-0.4,0.2-0.5C86.8,8.2,87,8,87.2,8c0.2,0,0.3,0.1,0.5,0.2C87.9,8.5,88,8.6,88,8.8C88,9,87.9,9.2,87.8,9.4z"/>
</g>
<path class="st1" d="M108,1c-6.1,0-11,4.9-11,11s4.9,11,11,11s11-4.9,11-11S114.1,1,108,1z M112.8,10v1.3c-0.6,0-1.2-0.2-1.8-0.4
	c-0.4-0.2-0.7-0.3-1-0.6v3.9c0,0.9-0.4,1.8-1,2.4c-0.5,0.5-1.2,0.8-1.9,0.9c-0.2,0-0.4,0-0.6,0c-0.8,0-1.4-0.2-2-0.7
	c0-0.1-0.2-0.2-0.3-0.3c-0.7-0.7-1.1-1.6-1-2.6c0.1-0.7,0.3-1.4,0.8-2c0.7-0.8,1.6-1.1,2.6-1.1c0.2,0,0.4,0,0.5,0v0.4v1.3
	c-0.2-0.1-0.4-0.1-0.5-0.1c-0.9,0-1.6,0.7-1.6,1.6c0,0.6,0.3,1,0.8,1.3c0.2,0.2,0.5,0.2,0.8,0.2c0.2,0,0.5,0,0.6-0.1
	c0.6-0.2,1-0.8,1-1.5v-2.7V6.5h1.8c0,0.2,0.1,0.4,0.1,0.5c0.2,0.6,0.5,1.2,1.1,1.6c0.4,0.3,1,0.6,1.6,0.6V10z"/>
<g>
	<polygon class="st1" points="58.9,13.7 61.8,12 58.9,10.3 	"/>
	<path class="st1" d="M60,1c-6.1,0-11,4.9-11,11s4.9,11,11,11s11-4.9,11-11S66.1,1,60,1z M65.4,14.7c-0.2,0.5-0.5,0.8-1,1
		c-0.9,0.2-4.4,0.2-4.4,0.2s-3.5,0-4.4-0.2c-0.5-0.2-0.8-0.5-1-1c-0.2-0.9-0.2-2.7-0.2-2.7s0-1.8,0.2-2.7c0.2-0.5,0.5-0.8,1-1
		C56.5,8.2,60,8.2,60,8.2s3.5,0,4.4,0.2c0.5,0.2,0.8,0.5,1,1c0.2,0.9,0.2,2.7,0.2,2.7S65.6,13.8,65.4,14.7z"/>
</g>
</svg>
